REM MD5 a52d8d8f6d227ef56c7b10b5eb552459
FILE "PlayStation Zone CD Vol. 17 (Germany).bin" BINARY
  TRACK 01 MODE2/2352
    INDEX 01 00:00:00
  TRACK 02 AUDIO
    INDEX 00 58:27:65
    INDEX 01 58:29:65
  TRACK 03 AUDIO
    INDEX 00 59:42:61
    INDEX 01 59:44:61
  TRACK 04 AUDIO
    INDEX 00 61:38:36
    INDEX 01 61:40:36
REM LEADOUT 65:43:60
